<svg width="25" height="25" viewBox="0 0 25 25" fill="none" xmlns="http://www.w3.org/2000/svg">
<path d="M17.3727 2.66455H7.37268C4.61126 2.66455 2.37268 4.90313 2.37268 7.66455V17.6646C2.37268 20.426 4.61126 22.6646 7.37268 22.6646H17.3727C20.1341 22.6646 22.3727 20.426 22.3727 17.6646V7.66455C22.3727 4.90313 20.1341 2.66455 17.3727 2.66455Z" stroke="black" stroke-width="2" stroke-linecap="round" stroke-linejoin="round"/>
<path d="M16.3727 12.0346C16.4961 12.8669 16.3539 13.7168 15.9664 14.4636C15.5789 15.2104 14.9658 15.816 14.2143 16.1943C13.4628 16.5725 12.6111 16.7042 11.7805 16.5705C10.9498 16.4369 10.1824 16.0447 9.58752 15.4498C8.99259 14.8548 8.60041 14.0875 8.46675 13.2568C8.33308 12.4262 8.46474 11.5745 8.843 10.823C9.22127 10.0715 9.82686 9.45835 10.5737 9.07085C11.3205 8.68335 12.1704 8.5412 13.0027 8.66461C13.8516 8.79049 14.6375 9.18607 15.2444 9.79291C15.8512 10.3998 16.2468 11.1857 16.3727 12.0346Z" stroke="black" stroke-width="2" stroke-linecap="round" stroke-linejoin="round"/>
<path d="M17.8727 7.16455H17.8827" stroke="black" stroke-width="2" stroke-linecap="round" stroke-linejoin="round"/>
</svg>
