<svg width="25" height="25" viewBox="0 0 25 25" fill="none" xmlns="http://www.w3.org/2000/svg">
<path d="M16.1717 8.72729C17.763 8.72729 19.2891 9.35944 20.4144 10.4847C21.5396 11.6099 22.1717 13.136 22.1717 14.7273V21.7273H18.1717V14.7273C18.1717 14.1969 17.961 13.6882 17.5859 13.3131C17.2109 12.938 16.7022 12.7273 16.1717 12.7273C15.6413 12.7273 15.1326 12.938 14.7575 13.3131C14.3824 13.6882 14.1717 14.1969 14.1717 14.7273V21.7273H10.1717V14.7273C10.1717 13.136 10.8039 11.6099 11.9291 10.4847C13.0543 9.35944 14.5804 8.72729 16.1717 8.72729V8.72729Z" stroke="black" stroke-width="2" stroke-linecap="round" stroke-linejoin="round"/>
<path d="M6.17172 9.72729H2.17172V21.7273H6.17172V9.72729Z" stroke="black" stroke-width="2" stroke-linecap="round" stroke-linejoin="round"/>
<path d="M4.17172 6.72729C5.27629 6.72729 6.17172 5.83186 6.17172 4.72729C6.17172 3.62273 5.27629 2.72729 4.17172 2.72729C3.06715 2.72729 2.17172 3.62273 2.17172 4.72729C2.17172 5.83186 3.06715 6.72729 4.17172 6.72729Z" stroke="black" stroke-width="2" stroke-linecap="round" stroke-linejoin="round"/>
</svg>
